#tb 0: 1/25
0,          0,          0,        1,    38016, 0x359316a1
0,          1,          1,        1,    38016, 0xd5fafa54
0,          2,          2,        1,    38016, 0xea99e9be
0,          3,          3,        1,    38016, 0xd680f3db
0,          4,          4,        1,    38016, 0x8b771545
0,          5,          5,        1,    38016, 0xff8c3073
0,          6,          6,        1,    38016, 0x543d403a
0,          7,          7,        1,    38016, 0xd2136010
0,          8,          8,        1,    38016, 0x11d17cd3
0,          9,          9,        1,    38016, 0xd8c69527
0,         10,         10,        1,    38016, 0x070d9a08
0,         11,         11,        1,    38016, 0xc8e3b21d
0,         12,         12,        1,    38016, 0xe903b09e
0,         13,         13,        1,    38016, 0x30ba9ece
0,         14,         14,        1,    38016, 0xb32482a4
0,         15,         15,        1,    38016, 0x56cf8ea3
0,         16,         16,        1,    38016, 0x0b41abd0
